{"title":"A Ring By Spring_480p.HDTV.x264_TTL","uid":9731740,"size":747639079,"categoryP":"video","categoryS":"tv_shows","magnet":"?xt=urn:btih:2bf6781f516ab0dcdcd0a5b9c0ee6fd5fc1a2c02&amp;dn=A+Ring+By+Spring_480p.HDTV.x264_TTL&amp;tr=udp%3A%2F%2Ftracker.openbittorrent.com%3A80&amp;tr=udp%3A%2F%2Fopen.demonii.com%3A1337&amp;tr=udp%3A%2F%2Ftracker.coppersurfer.tk%3A6969&amp;tr=udp%3A%2F%2Fexodus.desync.com%3A6969","seeders":1,"leechers":2,"uploader":"thetorrentlord","files":-1,"time":1394393638,"description":" &lt;a href=&quot;http://www.hallmarkchannel.com/Shows/&quot; rel=&quot;nofollow&quot; target=&quot;_NEW&quot;&gt;http://www.hallmarkchannel.com/Shows/&lt;/a&gt;\t\t\t\t\n\n\t\t\t\t\t\t\t\t\n\n\t\t\t\t\t\t\t\t\n\n\t\t\t\t\t\t\t\t\n\n\t\t\t\t                                                       Grab a sample and check it \n\nout. \t\t\t\t\t\t\t\t\n\n\t\t\t\t\t\t\t\t\n\n\t\t\t\t\t\t\t\t\t\t\t\tIf you like it then go for \n\nit.\t\t\t\t\t\t\t\t\n\n\t\t\t\t\t\t\t\t\n\n\t\t\t\t\t\t\t\t\n\n\t\t\t\t\t\t\t\t\n\n\t\t\t\t\t\t\t\t\n\n\t\t\t\t\t\t\t\t\t\t\tEnjoy and please share.\t\t\n\n\t\t\t\t\t\t\t\t\n\n\t\t\t\t\t\t\t\t\n\n\t\t\t\t\t\t\t\t\n\n\t\t\t\t\t\t\t\t\n\n\t\t\t\t\t\t\t\t\n\n\t\t\t\t\t\t\t\t\n\n\t\t\t\t\t\t\t\t\n\n\t\t\t\t\t\t\t\t\n\n\t\t\t\t\t\t\t\t\n\n\t\t\t\t\t\t\t\t\n\n\t\t\t\t\t\t\t\t\n\n\t\t\t\t\t\t\t\t\n\n\t\t\t\t\t\n\nTTLTTLTTLTTLTTLTTLTTLTTLTTLTTLTTLTTLTTLTTLTTLTTLTTLTTLTTLTT\n\nLTTL\t\t\t\t\t\t\t\t\n\n\t\t\t\t\t\t\t\t\n\n\t\t\t\t\t\t\t\t\n\n\t\t\t\t  \t\t\t\t\t\t\t\tA Ring By Spring_480p.HDTV.x264_TTL.mp4\nFormat                           : MPEG-4\nFormat profile                   : Base Media / Version 2\nCodec ID                         : mp42\nFile size                        : 704 MiB\nDuration                         : 1h 24mn\nOverall bit rate mode            : Variable\nOverall bit rate                 : 1 171 Kbps\nEncoded date                     : UTC 2013-12-18 08:24:51\nTagged date                      : UTC 2013-12-18 09:07:25\nWriting application              : HandBrake 0.9.5 \n\n2011010300\n\nVideo\nID                               : 1\nFormat                           : AVC\nFormat/Info                      : Advanced Video Codec\nFormat profile                   : &lt;a class=&quot;__cf_email__&quot; href=&quot;/cdn-cgi/l/email-protection&quot; data-cfemail=&quot;bdf0dcd4d3fdf18e938d&quot;&gt;[email&amp;#160;protected]&lt;/a&gt;&lt;script cf-hash='f9e31' type=&quot;text/javascript&quot;&gt;\n/* &lt;![CDATA[ */!function(){try{var t=&quot;currentScript&quot;in document?document.currentScript:function(){for(var t=document.getElementsByTagName(&quot;script&quot;),e=t.length;e--;)if(t[e].getAttribute(&quot;cf-hash&quot;))return t[e]}();if(t&amp;&amp;t.previousSibling){var e,r,n,i,c=t.previousSibling,a=c.getAttribute(&quot;data-cfemail&quot;);if(a){for(e=&quot;&quot;,r=parseInt(a.substr(0,2),16),n=2;a.length-n;n+=2)i=parseInt(a.substr(n,2),16)^r,e+=String.fromCharCode(i);e=document.createTextNode(e),c.parentNode.replaceChild(e,c)}}}catch(u){}}();/* ]]&gt; */&lt;/script&gt;\nFormat settings, CABAC           : Yes\nFormat settings, ReFrames        : 4 frames\nCodec ID                         : avc1\nCodec ID/Info                    : Advanced Video Coding\nDuration                         : 1h 24mn\nBit rate mode                    : Variable\nBit rate                         : 1 006 Kbps\nWidth                            : 624 pixels\nHeight                           : 352 pixels\nDisplay aspect ratio             : 16:9\nFrame rate mode                  : Variable\nFrame rate                       : 29.970 fps\nMinimum frame rate               : 14.985 fps\nMaximum frame rate               : 29.970 fps\nColor space                      : YUV\nChroma subsampling               : 4:2:0\nBit depth                        : 8 bits\nScan type                        : Progressive\nBits/(Pixel*Frame)               : 0.153\nStream size                      : 605 MiB (86%)\nWriting library                  : x264 core 112\n \nAudio\nID                               : 2\nFormat                           : AAC\nFormat/Info                      : Advanced Audio Codec\nFormat profile                   : LC\nCodec ID                         : 40\nDuration                         : 1h 24mn\nBit rate mode                    : Variable\nBit rate                         : 160 Kbps\nMaximum bit rate                 : 190 Kbps\nChannel(s)                       : 2 channels\nChannel positions                : Front: L R\nSampling rate                    : 48.0 KHz\nCompression mode                 : Lossy\nStream size                      : 96.2 MiB (14%)\nEncoded date                     : UTC 2013-12-18 08:24:51\nTagged date                      : UTC 2013-12-18 09:07:25\n\n","torrent":{"xt":"urn:btih:2bf6781f516ab0dcdcd0a5b9c0ee6fd5fc1a2c02","amp;dn":"A+Ring+By+Spring_480p.HDTV.x264_TTL","amp;tr":["udp%3A%2F%2Ftracker.openbittorrent.com%3A80","udp%3A%2F%2Fopen.demonii.com%3A1337","udp%3A%2F%2Ftracker.coppersurfer.tk%3A6969","udp%3A%2F%2Fexodus.desync.com%3A6969"],"infoHash":"2bf6781f516ab0dcdcd0a5b9c0ee6fd5fc1a2c02","infoHashBuffer":{"type":"Buffer","data":[43,246,120,31,81,106,176,220,220,208,165,185,192,238,111,213,252,26,44,2]},"announce":[],"urlList":[]}}